# xmcd
#
# Track frame offsets:
#	150
#	12867
#	24682
#	37946
#	48890
#	60527
#	74315
#	84871
#	99366
#	109818
#	123521
#	134820
#	145245
#	158528
#	168987
#	178119
#	190251
#	202056
#	212424
#	221989
#
# Disc length: 3083 seconds
#
# Revision: 1
# Processed by: cddbd v1.5.2PL0 Copyright (c) Steve Scherf et al.
# Submitted via: audiograbber 1.83.01
#
DISCID=1c0c0914
DTITLE=J.J. Jackson - The Great J.J. Jackson
DYEAR=2009
DGENRE=Oldies
TTITLE0=But It's Alright  
TTITLE1=It Seems Like I've Been Here Before  
TTITLE2=Too Late  
TTITLE3=Courage Ain't Strength  
TTITLE4=A Change Is Gonna Come  (Stereo)
TTITLE5=Sho Nuff (Got A Good Thing Going) 
TTITLE6=Four Walls (Three Windows And Two Doors)  
TTITLE7=I Don't Want To Live My Life Alone 
TTITLE8=Try Me  (Stereo)
TTITLE9=Down But Not Out  
TTITLE10=That Ain't Right  (Stereo)
TTITLE11=I Dig Girls  (Stereo)
TTITLE12=You've Got Me Dizzy 
TTITLE13=Come See Me (I'm Your Man)  
TTITLE14=The Stones That I Throw  
TTITLE15=Give Me Back The Love  
TTITLE16=Ain't Too Proud To Beg  
TTITLE17=Love Is A Hurting Thing  
TTITLE18=Boogaloo Baby 
TTITLE19=Let It Out  
EXTD=
EXTT0=
EXTT1=
EXTT2=
EXTT3=
EXTT4=
EXTT5=
EXTT6=
EXTT7=
EXTT8=
EXTT9=
EXTT10=
EXTT11=
EXTT12=
EXTT13=
EXTT14=
EXTT15=
EXTT16=
EXTT17=
EXTT18=
EXTT19=
PLAYORDER=
